<?xml version="1.0" standalone="no"?><!DOCTYPE svg PUBLIC "-//W3C//DTD SVG 1.1//EN" "http://www.w3.org/Graphics/SVG/1.1/DTD/svg11.dtd"><svg t="1628570910796" class="icon" viewBox="0 0 1024 1024" version="1.1" xmlns="http://www.w3.org/2000/svg" p-id="1490" xmlns:xlink="http://www.w3.org/1999/xlink" width="200" height="200"><defs><style type="text/css"></style></defs><path d="M818.4 63.08H306.25c-57.38 0-104.1 46.42-104.62 103.68-19.61 3.08-37.84 9.05-53.06 17.57-28.98 16.2-45.61 40.93-45.61 67.85s16.62 51.64 45.61 67.85c15.22 8.51 33.44 14.48 53.05 17.56v47.26c-19.61 3.09-37.83 9.05-53.05 17.56-28.98 16.2-45.61 40.93-45.61 67.85s16.62 51.64 45.61 67.85c15.22 8.51 33.44 14.48 53.05 17.56v47.82c-18.29 3.22-35.26 8.99-49.59 17-28.98 16.2-45.61 40.93-45.61 67.85 0 26.91 16.62 51.64 45.61 67.85 14.33 8.01 31.3 13.78 49.59 17v82.69c0 57.69 46.94 104.63 104.63 104.63H818.4c57.69 0 104.63-46.94 104.63-104.63V167.72c0.01-57.7-46.93-104.64-104.63-104.64z m-631.09 199c-8.62-3.88-12.9-7.81-14.54-9.91 1.64-2.1 5.92-6.02 14.54-9.91 4.36-1.96 9.17-3.61 14.31-4.93V267c-5.13-1.31-9.95-2.96-14.31-4.92z m0 218.08c-8.62-3.88-12.9-7.81-14.54-9.91 1.64-2.1 5.92-6.02 14.54-9.91 4.36-1.96 9.17-3.61 14.31-4.93v29.67c-5.13-1.31-9.95-2.95-14.31-4.92z m3.47 218.09c-8.62-3.88-12.9-7.81-14.54-9.91 1.64-2.1 5.92-6.02 14.54-9.91 3.36-1.51 7-2.84 10.84-3.98v27.76c-3.84-1.12-7.48-2.45-10.84-3.96zM853.8 855.88c0 19.52-15.88 35.4-35.4 35.4H306.25c-19.52 0-35.4-15.88-35.4-35.4V674.46c3.84 1.14 7.48 2.46 10.84 3.98 9.98 4.5 14.14 9.06 15.13 10.76 0.45 18.72 15.77 33.77 34.61 33.77 19.12 0 34.62-15.5 34.62-34.62 0-26.91-16.62-51.64-45.61-67.85-14.33-8.01-31.3-13.78-49.59-17V457.46c2.58 0.87 5.05 1.84 7.38 2.89 9.98 4.5 14.14 9.06 15.13 10.76 0.45 18.72 15.77 33.77 34.61 33.77 19.12 0 34.62-15.5 34.62-34.62 0-26.91-16.62-51.64-45.61-67.85-13.42-7.5-29.16-13.02-46.13-16.35V239.38c2.58 0.87 5.05 1.84 7.38 2.89 9.98 4.5 14.14 9.06 15.13 10.76 0.45 18.72 15.77 33.77 34.61 33.77 19.12 0 34.62-15.5 34.62-34.62 0-26.91-16.62-51.64-45.61-67.85-13.42-7.5-29.16-13.02-46.13-16.35v-0.26c0-19.52 15.88-35.4 35.4-35.4H818.4c19.52 0 35.4 15.88 35.4 35.4v688.16z" fill="#383838" p-id="1491"></path><path d="M755.48 283.74h-317.6c-19.12 0-34.62-15.5-34.62-34.62s15.5-34.62 34.62-34.62h317.6c19.12 0 34.62 15.5 34.62 34.62s-15.5 34.62-34.62 34.62zM755.48 459.13h-317.6c-19.12 0-34.62-15.5-34.62-34.62s15.5-34.62 34.62-34.62h317.6c19.12 0 34.62 15.5 34.62 34.62s-15.5 34.62-34.62 34.62zM755.48 634.52h-317.6c-19.12 0-34.62-15.5-34.62-34.62 0-19.12 15.5-34.62 34.62-34.62h317.6c19.12 0 34.62 15.5 34.62 34.62 0 19.12-15.5 34.62-34.62 34.62zM755.48 809.91h-317.6c-19.12 0-34.62-15.5-34.62-34.62s15.5-34.62 34.62-34.62h317.6c19.12 0 34.62 15.5 34.62 34.62s-15.5 34.62-34.62 34.62z" fill="#383838" p-id="1492"></path></svg>