<?xml version="1.0" standalone="no"?><!DOCTYPE svg PUBLIC "-//W3C//DTD SVG 1.1//EN" "http://www.w3.org/Graphics/SVG/1.1/DTD/svg11.dtd"><svg t="1628571527094" class="icon" viewBox="0 0 1024 1024" version="1.1" xmlns="http://www.w3.org/2000/svg" p-id="949" xmlns:xlink="http://www.w3.org/1999/xlink" width="200" height="200"><defs><style type="text/css"></style></defs><path d="M834 951H190c-22 0-40-18-40-40V706c0-22 18-40 40-40h171.6V356.2H190c-22 0-40-18-40-40V113c0-22 18-40 40-40h644c22 0 40 18 40 40v797.8c0 22.2-18 40.2-40 40.2z m-628-56h612v-766H206v171.2h171.6c22 0 40 18 40 40V682c0 22-18 40-40 40H206v173z" fill="#ffffff" p-id="950"></path><path d="M708 722c-15.4 0-28-12.6-28-28V328.2c0-15.4 12.6-28 28-28s28 12.6 28 28V694c0 15.4-12.6 28-28 28zM270.6 464.6H178c-15.4 0-28-12.6-28-28s12.6-28 28-28h92.6c15.4 0 28 12.6 28 28s-12.4 28-28 28zM270.6 615.2H178c-15.4 0-28-12.6-28-28s12.6-28 28-28h92.6c15.4 0 28 12.6 28 28s-12.4 28-28 28z" fill="#ffffff" p-id="951"></path></svg>