<?xml version="1.0" standalone="no"?><!DOCTYPE svg PUBLIC "-//W3C//DTD SVG 1.1//EN" "http://www.w3.org/Graphics/SVG/1.1/DTD/svg11.dtd"><svg t="1628514145914" class="icon" viewBox="0 0 1024 1024" version="1.1" xmlns="http://www.w3.org/2000/svg" p-id="1496" xmlns:xlink="http://www.w3.org/1999/xlink" width="200" height="200"><defs><style type="text/css"></style></defs><path d="M487.517091 184.459636l46.545455 0 0 746.449455-46.545455 0 0-746.449455ZM347.880727 184.459636 301.335273 184.459636 347.880727 930.909091 394.426182 930.909091ZM161.652364 186.181818 115.153455 186.181818 208.244364 1024 813.335273 1024 906.426182 186.181818 859.880727 186.181818 766.789818 977.454545 254.789818 977.454545ZM673.698909 184.459636 627.153455 930.909091 673.698909 930.909091 720.244364 184.459636ZM954.181818 93.090909c0-46.545455-23.319273-46.545455-23.319273-46.545455l-303.709091 0c0 0 0-46.545455-46.545455-46.545455l-139.636364 0c-46.545455 0-46.545455 46.545455-46.545455 46.545455L93.137455 46.545455C93.137455 46.545455 69.818182 46.545455 69.818182 93.090909c0 46.545455 23.319273 46.545455 23.319273 46.545455l837.725091 0C930.862545 139.636364 954.181818 139.636364 954.181818 93.090909z" p-id="1497"></path></svg>