
<svg xmlns="http://www.w3.org/2000/svg" version="1.1" xmlns:xlink="http://www.w3.org/1999/xlink" preserveAspectRatio="none" x="0px" y="0px" width="1024px" height="1024px" viewBox="0 0 1024 1024">
<defs>
<g id="Layer0_0_MEMBER_0_MEMBER_0_FILL">
<path fill="#61313E" stroke="none" d="
M 413.55 229.3
Q 414.65 229.3 415.4 228.8 416.15 228.25 416.15 227.55
L 416.15 211.45
Q 416.15 210.75 415.4 210.25 414.65 209.75 413.55 209.75
L 316.95 209.75
Q 315.85 209.75 315.1 210.25 314.35 210.75 314.35 211.45
L 314.35 227.55
Q 314.35 228.25 315.1 228.8 315.85 229.3 316.95 229.3
L 413.55 229.3 Z"/>
</g>

<g id="Layer0_0_MEMBER_1_MEMBER_0_FILL">
<path fill="#63A343" stroke="none" d="
M 413.55 229.3
Q 414.65 229.3 415.4 228.8 416.15 228.25 416.15 227.55
L 416.15 211.45
Q 416.15 210.75 415.4 210.25 414.65 209.75 413.55 209.75
L 316.95 209.75
Q 315.85 209.75 315.1 210.25 314.35 210.75 314.35 211.45
L 314.35 227.55
Q 314.35 228.25 315.1 228.8 315.85 229.3 316.95 229.3
L 413.55 229.3 Z"/>
</g>

<g id="Layer0_0_MEMBER_2_FILL">
<path fill="#4F823C" stroke="none" d="
M 416.15 227.55
L 416.15 224.15 314.35 224.15 314.35 227.55
Q 314.35 228.25 315.1 228.8 315.85 229.3 316.95 229.3
L 413.55 229.3
Q 414.65 229.3 415.4 228.8 416.15 228.25 416.15 227.55 Z"/>
</g>

<g id="Layer0_0_MEMBER_3_MEMBER_0_FILL">
<path fill="#FFC23A" stroke="none" d="
M 399.25 209.75
L 395.45 209.75 395.45 229.3 399.25 229.3 399.25 209.75 Z"/>
</g>

<g id="Layer0_0_MEMBER_4_MEMBER_0_FILL">
<path fill="#FFC23A" stroke="none" d="
M 405.2 229.3
L 405.2 209.75 401.4 209.75 401.4 229.3 405.2 229.3 Z"/>
</g>

<g id="Layer0_0_MEMBER_5_MEMBER_0_FILL">
<path fill="#D13431" stroke="none" d="
M 370.25 208.8
Q 370.25 207.4 368.95 206.35 367.65 205.35 365.8 205.35 363.95 205.35 362.6 206.35 361.3 207.35 361.3 208.8 361.3 210.25 362.6 211.3 363.95 212.3 365.8 212.3 367.65 212.3 368.95 211.3 370.25 210.25 370.25 208.8 Z"/>
</g>

<g id="Layer0_0_MEMBER_6_MEMBER_0_FILL">
<path fill="#EA5645" stroke="none" d="
M 411.7 211
L 410.55 152.6 320.8 152.6 319.3 211 411.7 211 Z"/>
</g>

<g id="Layer0_0_MEMBER_7_MEMBER_0_FILL">
<path fill="#B4B4B4" stroke="none" d="
M 369.4 208.8
Q 369.4 207.65 368.35 206.85 367.3 206.05 365.8 206.05 364.3 206.05 363.25 206.85 362.15 207.7 362.15 208.8 362.15 209.95 363.25 210.8 364.3 211.6 365.8 211.6 367.3 211.6 368.35 210.8 369.4 209.95 369.4 208.8 Z"/>
</g>

<g id="Layer0_0_MEMBER_8_MEMBER_0_FILL">
<path fill="#E7E5E5" stroke="none" d="
M 366 152.8
Q 366.1 152.9 365.95 180.95 365.85 194.95 365.75 208.95
L 367.95 207.85
Q 370.9 206.7 374.35 206.4 382 205.8 396.15 207.3 403.25 208.1 408.8 208.95
L 408.8 153
Q 387.55 150.55 379.5 150.2 374.45 149.95 369.75 151.35
L 366 152.8 Z"/>
</g>

<g id="Layer0_0_MEMBER_9_MEMBER_1_MEMBER_0_FILL">
<path fill="#B4B4B4" stroke="none" d="
M 408.8 209.55
L 408.8 208.95
Q 403.25 208.1 396.15 207.3 382 205.8 374.35 206.4 370.9 206.7 367.95 207.85
L 365.75 208.95 365.75 209.55 408.8 209.55 Z"/>
</g>

<g id="Layer0_0_MEMBER_10_MEMBER_0_FILL">
<path fill="#E2E0DF" stroke="none" d="
M 351.9 150.25
Q 346.85 150.45 334.3 151.8
L 322.75 153.05 322.75 209 335.4 207.35
Q 349.55 205.85 357.25 206.45 360.7 206.75 363.6 207.9 365.05 208.5 365.8 209 365.8 195.05 365.8 181.05 365.8 153.05 365.9 152.95 364.4 152.2 361.9 151.45 356.95 150 351.9 150.25 Z"/>
</g>

<g id="Layer0_0_MEMBER_11_MEMBER_1_MEMBER_0_FILL">
<path fill="#B4B4B4" stroke="none" d="
M 365.8 209.6
L 365.8 209
Q 365.05 208.5 363.6 207.9 360.7 206.75 357.25 206.45 349.55 205.85 335.4 207.35
L 322.75 209 322.75 209.6 365.8 209.6 Z"/>
</g>

<g id="Layer0_0_MEMBER_12_MEMBER_0_FILL">
<path fill="#D8D6D6" stroke="none" d="
M 373.75 150
Q 367.6 150.35 365.9 152.95
L 365.8 209 369.85 207.4
Q 375.2 205.9 381.65 206.25
L 379.5 150.2
Q 376.8 149.85 373.75 150 Z"/>
</g>

<g id="Layer0_0_MEMBER_13_MEMBER_0_FILL">
<path fill="#EA5645" stroke="none" d="
M 379.45 174.5
L 379.45 149.95 373.7 149.95 373.7 174.5 376.6 177.95 379.45 174.5 Z"/>
</g>

<g id="Layer0_0_MEMBER_14_MEMBER_0_FILL">
<path fill="#D8D6D6" stroke="none" d="
M 365.75 210.45
L 365.8 209
Q 364.7 207.4 358.75 206.6 346.85 204.95 322.75 209
L 322.75 209.6 342.1 208.35
Q 362.2 207.65 365.75 210.45 Z"/>
</g>

<g id="Layer0_0_MEMBER_15_MEMBER_0_FILL">
<path fill="#D8D6D6" stroke="none" d="
M 408.8 209.55
L 408.8 208.95
Q 385.05 205.05 373.05 206.65 369.3 207.15 367.2 208.1
L 365.8 209 365.75 210.45
Q 369.9 207.55 389.75 208.25 399.7 208.6 408.8 209.55 Z"/>
</g>

<g id="Layer0_0_MEMBER_16_MEMBER_0_FILL">
<path fill="#D13431" stroke="none" d="
M 362.3 209.55
L 354.55 209.6 354.55 211 363.55 211
Q 362.45 210.3 362.3 209.55 Z"/>
</g>

<g id="Layer0_0_MEMBER_17_MEMBER_0_FILL">
<path fill="#D13431" stroke="none" d="
M 377.05 209.6
L 369.3 209.55
Q 369.15 210.3 368 211
L 377.05 211 377.05 209.6 Z"/>
</g>

<g id="Layer0_0_MEMBER_18_MEMBER_0_MEMBER_0_FILL">
<path fill="#EA5645" stroke="none" d="
M 345.4 210.45
L 324 210.45 324 229.3 345.4 229.3 345.4 210.45 Z"/>
</g>

<g id="Layer0_0_MEMBER_18_MEMBER_1_MEMBER_0_FILL">
<path fill="#D13431" stroke="none" d="
M 345.4 224.2
L 324 224.2 324 229.3 345.4 229.3 345.4 224.2 Z"/>
</g>

<g id="Layer0_0_MEMBER_18_MEMBER_2_FILL">
<path fill="#FFC23A" stroke="none" d="
M 340.15 210.45
L 330.65 210.45 330.65 229.3 340.15 229.3 340.15 210.45 Z"/>
</g>

<g id="Layer0_0_MEMBER_18_MEMBER_3_FILL">
<path fill="#F9A431" stroke="none" d="
M 340.15 224.2
L 330.65 224.2 330.65 229.3 340.15 229.3 340.15 224.2 Z"/>
</g>
</defs>

<g transform="matrix( 8, 0, 0, 8, -2410,-1005) ">
<use xlink:href="#Layer0_0_MEMBER_0_MEMBER_0_FILL"/>
</g>

<g transform="matrix( 8, 0, 0, 8, -2410,-1005) ">
<use xlink:href="#Layer0_0_MEMBER_1_MEMBER_0_FILL"/>
</g>

<g transform="matrix( 8, 0, 0, 8, -2410,-1005) ">
<use xlink:href="#Layer0_0_MEMBER_2_FILL"/>
</g>

<g transform="matrix( 8, 0, 0, 8, -2410,-1005) ">
<use xlink:href="#Layer0_0_MEMBER_3_MEMBER_0_FILL"/>
</g>

<g transform="matrix( 8, 0, 0, 8, -2410,-1005) ">
<use xlink:href="#Layer0_0_MEMBER_4_MEMBER_0_FILL"/>
</g>

<g transform="matrix( 8, 0, 0, 8, -2410,-1005) ">
<use xlink:href="#Layer0_0_MEMBER_5_MEMBER_0_FILL"/>
</g>

<g transform="matrix( 8, 0, 0, 8, -2410,-1005) ">
<use xlink:href="#Layer0_0_MEMBER_6_MEMBER_0_FILL"/>
</g>

<g transform="matrix( 8, 0, 0, 8, -2410,-1005) ">
<use xlink:href="#Layer0_0_MEMBER_7_MEMBER_0_FILL"/>
</g>

<g transform="matrix( 8, 0, 0, 8, -2410,-1005) ">
<use xlink:href="#Layer0_0_MEMBER_8_MEMBER_0_FILL"/>
</g>

<g transform="matrix( 8, 0, 0, 8, -2410,-1005) ">
<use xlink:href="#Layer0_0_MEMBER_9_MEMBER_1_MEMBER_0_FILL"/>
</g>

<g transform="matrix( 8, 0, 0, 8, -2410,-1005) ">
<use xlink:href="#Layer0_0_MEMBER_10_MEMBER_0_FILL"/>
</g>

<g transform="matrix( 8, 0, 0, 8, -2410,-1005) ">
<use xlink:href="#Layer0_0_MEMBER_11_MEMBER_1_MEMBER_0_FILL"/>
</g>

<g transform="matrix( 8, 0, 0, 8, -2410,-1005) ">
<use xlink:href="#Layer0_0_MEMBER_12_MEMBER_0_FILL"/>
</g>

<g transform="matrix( 8, 0, 0, 8, -2410,-1005) ">
<use xlink:href="#Layer0_0_MEMBER_13_MEMBER_0_FILL"/>
</g>

<g transform="matrix( 8, 0, 0, 8, -2410,-1005) ">
<use xlink:href="#Layer0_0_MEMBER_14_MEMBER_0_FILL"/>
</g>

<g transform="matrix( 8, 0, 0, 8, -2410,-1005) ">
<use xlink:href="#Layer0_0_MEMBER_15_MEMBER_0_FILL"/>
</g>

<g transform="matrix( 8, 0, 0, 8, -2410,-1005) ">
<use xlink:href="#Layer0_0_MEMBER_16_MEMBER_0_FILL"/>
</g>

<g transform="matrix( 8, 0, 0, 8, -2410,-1005) ">
<use xlink:href="#Layer0_0_MEMBER_17_MEMBER_0_FILL"/>
</g>

<g transform="matrix( 8, 0, 0, 8, -2410,-1005) ">
<use xlink:href="#Layer0_0_MEMBER_18_MEMBER_0_MEMBER_0_FILL"/>
</g>

<g transform="matrix( 8, 0, 0, 8, -2410,-1005) ">
<use xlink:href="#Layer0_0_MEMBER_18_MEMBER_1_MEMBER_0_FILL"/>
</g>

<g transform="matrix( 8, 0, 0, 8, -2410,-1005) ">
<use xlink:href="#Layer0_0_MEMBER_18_MEMBER_2_FILL"/>
</g>

<g transform="matrix( 8, 0, 0, 8, -2410,-1005) ">
<use xlink:href="#Layer0_0_MEMBER_18_MEMBER_3_FILL"/>
</g>
</svg>
