<svg viewBox="30.720000000000027 89.60000000000002 962.5599999999997 588.8" xmlns="http://www.w3.org/2000/svg" xmlns:xlink="http://www.w3.org/1999/xlink" xmlns:blush="http://design.blush" overflow="visible" width="962.5599999999997px" height="588.8px"><g id="Master/Doodles/Reading" stroke="none" stroke-width="1" fill="none" fill-rule="evenodd"><path d="M738.3212,566.0273 C733.8042,571.2513 727.1342,575.1283 722.0162,579.9043 C716.6422,584.9213 710.8092,589.3053 705.4562,594.2613 C681.8422,565.4003 649.4942,547.7033 621.4712,523.7543 C608.1862,512.3993 598.3982,496.9983 591.2352,481.1923 C587.5632,473.0893 584.8502,464.7493 582.7272,456.1173 C581.7712,452.2293 580.8362,448.3543 580.2112,444.4133 C579.4542,439.6403 579.2582,439.2333 576.0382,435.5083 C574.6522,433.9053 571.9672,429.2213 569.2522,429.7373 C566.9672,430.1723 562.7882,437.1273 561.3442,438.8453 C554.4002,447.1083 547.6682,455.6223 540.3572,463.5653 C529.1722,475.7193 518.9892,487.6793 508.6042,500.5613 C487.3602,526.9163 464.4442,551.7253 441.3202,576.5243 C439.6052,578.3633 435.6062,583.7563 433.1422,584.4813 C430.1462,585.3623 425.2772,581.6873 422.2602,579.6333 C414.9772,574.6753 409.2372,568.5383 403.0112,562.3933 C390.8622,550.4013 382.6352,533.5683 377.1012,517.5523 C373.7882,507.9653 371.6342,498.0273 368.2152,488.4733 C366.7902,484.4913 363.5602,479.5973 365.2002,476.1293 C365.6882,475.0953 368.7962,472.3483 369.8922,472.1383 C371.1882,471.8893 373.3492,473.6663 373.7992,473.5433 C378.0992,472.3663 375.7132,467.8653 378.2712,465.4433 C379.7212,464.0693 387.0962,464.2703 389.2982,463.5153 C397.3492,460.7533 404.5722,455.4853 412.1832,452.3403 C444.0462,439.1763 476.2972,426.3713 503.8042,404.8743 C510.9382,399.3003 515.6782,395.1113 524.1902,391.5083 C532.7922,387.8673 541.4392,384.6193 550.2162,381.4423 C557.9602,378.6393 565.7462,376.0113 573.7462,374.0023 C582.3962,371.8293 594.6672,369.0743 603.3102,371.8733 C620.2832,377.3683 625.7642,391.3533 632.5232,406.1063 C641.6682,426.0663 652.7252,444.9543 664.7122,463.3263 C687.7722,498.6743 715.8182,530.3933 738.3212,566.0273" id="Accent" fill="#FF5678"/><path d="M261.44912,90.4857 L258.456123,90.4866145 L258.456123,90.4866145 C262.452118,90.689247 266.383696,91.0880748 270.21302,91.6856 C276.38202,92.6486 282.30202,94.7136 288.01402,96.3566 C296.31202,98.7436 306.24602,97.9486 314.08102,101.8266 C319.559127,104.537207 323.766133,109.841157 328.532974,113.569084 L329.06502,113.9766 C334.89002,118.3416 339.73002,124.8566 343.77702,130.8816 C352.43202,143.7656 349.05002,167.6776 341.80602,180.6106 C340.25302,183.3846 338.33402,185.7196 335.76402,187.6126 C333.08802,189.5826 329.00902,190.1956 327.63002,192.7506 C324.09802,199.2956 327.50502,213.4646 327.97602,220.5386 C328.52502,228.7526 324.37202,234.9226 315.05802,235.5776 C309.750438,235.951928 309.504316,232.924132 307.031958,238.981944 L306.91802,239.2636 C305.24602,243.4326 303.72702,247.9746 301.31402,251.7966 C296.33902,259.6736 287.22702,258.9046 278.92702,258.6916 C269.31902,258.4436 259.85502,256.9256 250.24202,255.9676 C252.78102,264.1026 259.73102,270.4166 264.07102,277.6636 C269.93902,287.4656 273.47102,295.5906 274.42502,307.0106 C275.15702,315.7846 273.57702,322.7136 267.57302,329.2436 C265.08802,331.9466 262.88502,332.0796 263.50202,335.1976 C263.864591,337.031671 266.935807,340.015034 268.198404,341.586888 L268.33102,341.7556 C271.41002,345.7716 274.98502,349.4576 277.69502,353.7466 C288.12302,370.2486 291.20302,395.4046 291.22902,414.6146 C291.23002,415.4956 291.70002,417.3686 291.31102,418.2796 C291.02302,418.9526 288.83502,421.0836 288.80302,421.2666 C288.37502,423.7366 290.78302,427.9706 294.56202,428.3896 C298.53102,428.8286 305.80002,425.5166 309.49202,424.4286 C315.40002,422.6866 321.42202,421.4006 327.31702,419.6116 C336.83802,416.7226 346.31502,414.4186 355.99402,412.1546 C360.36802,411.1326 364.76602,410.2806 369.15402,409.3246 L369.645009,409.21272 C374.307107,408.104387 376.56002,406.3031 379.05402,411.2186 L379.267101,411.650102 C381.181473,415.632791 380.072749,416.299058 385.25202,414.1746 C390.57502,411.9896 395.77602,409.2816 400.97302,406.8156 C410.13902,402.4676 421.05502,398.5916 428.96202,392.1726 C442.15102,381.4636 447.03502,364.4096 459.65802,353.0466 C463.17302,349.8826 465.27002,349.8266 467.49202,345.4436 C469.87102,340.7526 471.09802,334.7366 472.34802,329.6906 C474.53902,320.8546 476.09802,311.9876 478.08502,303.1596 C480.56002,292.1616 485.90902,282.2016 489.81202,271.7116 C491.33302,267.6246 492.12102,262.4296 494.57402,258.7566 C495.22402,257.7826 496.46602,257.2336 496.97302,256.4276 C498.71802,253.6606 498.70002,252.9006 499.15202,249.5716 C501.24587,234.17215 510.367037,242.038314 520.393905,245.658234 L520.973396,245.866581 C525.77376,247.658174 545.117,257.14624 537.52102,263.4986 C540.865726,264.469071 544.938829,264.897339 548.768858,265.676852 C549.177172,265.68347 549.5805,265.751758 549.973856,265.935168 L550.547278,266.071003 C556.537209,267.536195 561.508104,270.266756 561.43602,277.9646 C561.37202,284.7496 557.31402,292.0076 555.13602,298.3586 C553.20102,303.9976 551.33102,309.6586 549.36602,315.2886 C545.06102,327.6216 539.83802,339.5856 535.63702,351.9566 C533.72202,357.5946 532.14202,363.3646 529.47602,368.6856 C527.12502,373.3796 521.43202,378.5536 520.49402,383.6866 C541.30934,374.806085 560.806872,362.578934 582.989546,359.594495 L582.36322,359.6111 C583.525802,358.788678 584.708103,358.678543 585.906622,359.257577 C589.030559,358.957714 592.210616,358.847579 595.45702,358.9616 C607.52502,359.3846 618.47702,364.4576 625.14202,375.0686 C633.49802,388.3686 638.99602,403.2596 647.16302,416.6826 C676.291451,464.554169 710.922574,508.130274 743.004244,553.92896 L744.92602,556.6796 C747.43102,560.2766 750.65302,563.6776 751.52202,568.1226 C752.08902,571.0226 750.98902,573.9236 751.66902,576.7096 C753.053397,582.390355 759.942037,589.45632 764.767,592.863148 L765.04302,593.0556 C774.30902,599.4336 789.37202,608.4296 800.93502,607.6336 C796.924586,597.995738 795.160061,587.848164 794.440794,577.55796 L794.43552,578.1496 C793.654339,576.957225 793.712622,575.77769 794.261672,574.603807 C793.883452,567.240172 793.979055,559.8215 794.11202,552.4816 C794.42018,535.51744 796.192762,518.684147 798.339772,501.891479 L798.82804,498.113107 C799.264816,494.784192 799.732449,491.619743 800.70702,488.3326 C802.01202,483.9326 803.80402,484.3496 799.89502,480.3946 C793.87902,474.3046 786.72302,469.2936 780.65802,463.1276 C767.54102,449.7936 754.09702,439.3426 743.77302,423.4196 L738.544755,415.357639 C730.395484,402.743513 722.314432,389.764835 716.32902,376.1066 C708.84702,359.0336 705.85602,340.8006 702.14202,322.7196 C700.63502,315.3826 695.13902,307.1916 696.24302,299.5296 C697.62506,289.94343 702.039529,296.758253 703.901387,301.951737 L703.95702,302.1086 C709.53502,318.0156 722.59602,332.2526 733.41402,345.0456 C745.10202,358.8656 759.39702,370.4286 771.59702,383.8466 C784.88202,398.4606 793.98202,415.2556 805.79602,430.8556 C805.79602,411.4956 799.18602,391.7816 796.48202,372.6296 C794.22197,356.61545 793.4348,340.553467 792.072241,324.471946 L791.85202,321.9326 C788.43702,283.4746 791.38802,243.8836 796.18102,205.7006 C797.439923,195.679111 797.608528,185.788031 797.519078,175.872758 L797.484848,172.895619 L797.484848,172.895619 C797.39112,165.856428 797.208968,158.797597 797.23602,151.6636 C797.25802,145.8726 794.86102,132.5256 797.91602,127.3866 C803.70851,117.64203 807.111516,138.639277 807.466206,142.173885 L807.47602,142.2756 C809.24502,161.3916 806.07202,180.2946 807.69302,199.3286 C809.38702,219.2056 813.06302,238.5246 816.19102,258.1716 C819.58002,279.4446 825.09702,300.2376 830.37902,321.1026 C835.92502,343.0096 840.58902,365.3736 846.75502,387.1056 C848.370506,380.469771 846.215072,372.360869 845.667982,365.525359 L845.62402,364.9256 C844.96602,354.9696 843.68102,345.0116 843.57002,335.0296 L843.514017,329.716585 C843.385663,316.411287 843.369655,302.952362 844.027335,289.724069 L844.16802,287.0816 C845.05502,271.4736 844.78702,255.1186 849.57402,240.0816 C851.84602,232.9446 855.17802,225.9816 858.43802,219.2586 C862.46002,210.9686 863.88202,202.9306 866.10902,194.1136 C868.01702,186.5626 870.80902,179.2106 872.08002,171.5086 L872.297742,170.196992 C873.243806,164.615259 875.51374,153.43564 880.55902,163.2916 C883.74302,169.5096 882.36702,178.7276 882.45602,185.4076 C882.57002,193.9716 881.25902,202.2986 881.05802,210.8266 L880.812532,221.524396 C880.561173,232.219698 880.260906,242.907867 879.630039,253.592041 L879.627758,253.591563 C879.5324,255.232583 879.428233,256.873296 879.314911,258.513856 L879.13802,260.9746 C877.82902,278.4996 878.97202,294.2056 882.30602,311.4736 C885.95502,330.3756 887.02302,349.3186 888.91402,368.4516 C889.88902,378.3306 891.53302,388.1546 892.32702,398.0476 C892.722689,402.983106 890.833943,416.601877 893.752446,421.282607 C893.93191,421.570434 894.129552,421.824464 894.34702,422.0406 C894.71002,412.9666 897.31002,403.8846 899.28102,395.0426 C901.61602,384.5676 902.55902,373.5556 904.28002,362.9306 C907.06702,345.7166 912.47502,329.2776 916.05302,312.2566 L916.494232,310.139627 C923.683052,275.374652 930.17418,231.61528 960.46402,209.1086 C964.50802,206.1036 968.95202,203.8856 973.32402,201.4126 C975.79902,200.0126 979.47602,196.3906 982.30802,195.7586 C985.39902,195.0686 986.68802,195.6046 987.94102,199.1906 C989.68802,204.1896 986.49302,206.5246 983.51002,210.1556 C973.378187,222.486933 968.942381,238.230296 962.755161,252.74061 L962.40302,253.5606 C950.141412,281.905278 943.622883,311.553405 941.807585,341.934072 C941.50516,346.995729 941.333295,352.076711 941.287125,357.175381 L941.263529,361.744783 C941.125022,379.990159 939.834187,397.660308 937.88302,415.8466 L937.565015,418.77184 C935.40973,438.322314 932.511544,458.805171 926.60202,477.5166 C932.82502,478.9116 939.57702,476.8316 941.26602,484.0656 C941.68102,485.8426 940.93102,487.9436 941.39002,490.2566 C941.83602,492.5046 942.90902,494.7406 943.54402,496.9516 C944.762306,501.197957 945.447724,505.391717 946.050244,509.729041 L946.18802,510.7326 C948.65502,528.8806 952.89102,546.1416 953.34202,564.5426 C953.75702,581.5516 950.42702,598.7846 947.35902,615.4666 C944.26802,632.2686 935.40302,646.5916 928.42402,661.7866 C931.42802,661.7866 934.43102,661.8176 937.43502,661.8486 C948.427409,663.028211 959.677579,662.458659 970.77527,663.212252 L972.73202,663.3596 C977.00002,663.7136 982.91702,664.2416 978.62302,669.9696 C975.97102,673.508215 967.58797,672.463338 963.559868,672.657694 L963.32802,672.6706 C952.77902,673.3416 941.61002,672.9806 931.03702,672.8246 C928.81102,672.7926 926.35102,672.1306 924.10102,672.2796 C921.50402,672.4506 918.39402,674.3186 916.02702,674.3046 C914.56802,674.2956 914.04502,672.7566 912.78702,672.6156 C910.04602,672.3076 907.30602,672.0826 904.54202,672.0836 C865.966635,672.091908 827.88034,671.376807 789.461998,671.231349 L779.85002,671.2076 C761.245887,671.188 742.362998,670.887031 723.728201,670.085986 L719.46476,669.895968 C714.611695,669.740484 691.74022,670.41492 692.38702,663.0316 C692.72602,659.1516 700.50302,658.6046 703.34102,658.1926 C705.181145,657.925725 707.081754,657.929116 708.93968,657.858432 L710.240809,657.79932 C715.478473,657.598418 717.746682,658.681138 716.60202,652.7446 C712.12302,629.5126 704.09702,610.3126 686.94902,593.6086 C674.201747,581.191327 659.089185,569.822815 644.514414,559.288938 L640.16102,556.1536 C620.87702,542.3036 605.23302,527.7376 593.78402,506.5446 C587.09802,494.1686 581.50102,481.5156 578.06602,467.8316 C576.83002,462.9086 576.80102,457.3096 575.28602,452.5636 C574.12102,448.9096 571.46502,446.3526 569.90102,442.5676 C550.71502,474.6136 525.28602,501.4246 501.97002,530.3186 C490.82902,544.1226 478.12002,557.2336 464.80902,569.2426 C460.85902,572.8066 457.17302,576.5276 453.48602,580.3626 C450.40202,583.5726 445.50602,586.4256 442.90202,589.9866 L442.617207,590.379754 C440.458319,593.394162 441.1711,593.34812 444.82102,595.9526 C449.84702,599.5376 455.38602,602.5166 460.49102,606.0126 C468.65102,611.6016 477.55802,616.3236 484.85402,623.0496 C490.951611,628.670418 496.453886,634.979104 501.822246,641.34077 L508.436394,649.217047 C512.654869,654.287436 517.319153,660.3552 518.32102,666.3456 L518.387793,666.723035 C518.844278,669.202233 520.05961,674.374497 518.23902,675.9636 C516.59902,677.3946 516.76402,676.8516 514.72802,675.9786 C512.06002,674.8346 511.27502,672.2096 508.01602,670.9586 C499.67702,667.7586 489.58602,668.8576 480.90902,668.8186 C472.22902,668.7796 463.47702,669.7546 454.80102,669.7186 C435.932449,669.641457 417.446644,671.092659 398.619709,671.974808 L395.767,672.103427 L393.364678,672.194588 C373.99973,672.822973 354.435604,671.004896 335.128212,671.107319 L332.49702,671.1336 C316.96302,671.3636 301.01502,670.2026 285.05202,671.0656 C276.84102,671.5086 268.77702,670.4816 260.77102,670.3666 C253.52601,670.262231 246.1458,670.911255 238.787568,671.389095 L237.190103,671.488335 L237.190103,671.488335 C234.436715,671.657628 231.687905,671.792066 228.95202,671.8446 C211.60002,672.1796 194.46002,672.1776 177.00202,672.5946 L151.992731,673.194257 C122.839353,673.8896 93.7512422,674.553822 64.52702,675.0166 C59.87302,675.089957 54.8094536,674.948615 50.1441829,675.379619 L49.0662768,675.490732 C43.81802,676.0896 46.53202,677.2066 42.92502,679.0996 C32.82702,684.3966 35.15902,664.7606 35.40102,660.8986 C36.69902,640.2026 41.95302,619.9046 48.26702,600.2566 C54.25702,581.6216 59.12002,562.1176 64.19302,543.0796 C69.74602,522.2426 76.98102,502.2586 83.55102,481.6266 L84.2432991,479.436723 C90.554296,459.338952 95.9883294,438.625769 107.364564,420.749817 L107.99102,419.7776 C110.77602,415.5096 113.65402,410.9166 118.13402,408.2256 L118.628343,407.934791 C122.85167,405.503205 123.322232,406.598094 123.364371,402.475848 L123.372544,400.169968 C123.404851,395.369009 123.571438,389.446378 122.597954,384.945329 L122.457064,384.333418 L122.457064,384.333418 L122.322255,383.799788 C121.380153,380.155983 121.411822,382.279095 119.178818,379.493274 L119.02302,379.2956 C116.99102,376.6766 114.86502,374.8866 113.40702,371.7066 C107.771171,377.42111 97.5635493,377.641969 88.6135291,375.390894 L88.1898641,375.281773 C83.0815326,373.94689 78.4184116,371.81541 75.29702,369.4566 C64.70602,361.4526 56.63902,347.9496 53.68302,335.0896 C51.30902,324.7626 54.22202,305.0776 65.65202,300.1116 C71.22402,297.6906 91.69002,295.8606 92.50902,287.9706 C92.93102,283.8976 85.72802,278.1706 84.06602,274.6686 C80.98602,268.1806 78.02802,259.5506 77.17202,252.4386 C75.50002,238.5566 81.80202,223.0336 91.84102,213.6566 C104.702554,201.642911 124.386209,193.713618 143.159176,193.741087 C143.762465,193.576176 144.368031,193.566114 144.977722,193.768981 C152.450755,193.987015 159.73911,195.495281 166.34902,198.5406 C161.34302,179.4176 158.32102,162.9206 160.84202,143.0286 C163.01402,125.8916 173.12502,116.3036 187.03802,107.7676 C207.260618,95.3590918 233.681914,89.34807 257.84639,90.4563096 L257.80012,90.4867 C259.01712,89.6507 260.23312,89.6717 261.44912,90.4857 Z M617.09642,605.4584 C619.83342,607.1464 618.65142,613.3884 618.51342,615.8774 L618.308529,619.495125 C617.523996,632.823254 616.21492,646.754983 609.14742,658.2894 C602.27247,669.510167 588.9127,670.913939 576.79827,671.498255 L575.85442,671.5423 L575.85442,671.5423 C575.037367,671.243345 574.216986,670.984584 573.395722,670.755681 C564.160416,668.181618 554.813376,669.383242 548.83042,659.5194 C547.17742,656.7944 545.78542,653.8644 544.78542,650.8374 C544.29642,649.5114 543.91642,648.1534 543.64642,646.7624 C544.15542,643.7684 543.05842,642.9244 540.35642,644.2294 C535.05342,643.1984 529.23842,646.8384 523.65242,645.7654 C510.10442,643.1634 512.56542,623.7564 521.65742,617.0384 C523.45342,615.7104 525.24742,615.3414 527.30342,614.6854 C531.83542,613.2414 534.28842,614.8544 538.43342,614.4444 C541.78342,614.1134 542.70442,610.6004 546.30442,609.0534 C548.530476,608.097622 551.572688,608.114098 553.991361,608.032951 L554.41142,608.0174 C567.37942,607.4844 580.38842,607.4894 593.43942,606.6444 C599.52642,606.2504 606.09842,607.2144 612.06142,606.1744 C614.85342,605.6864 614.45242,603.8284 617.09642,605.4584 Z M126.29202,424.3826 C120.650893,427.271582 116.13058,438.177125 113.186548,444.149278 L112.86002,444.8036 C109.274895,451.890475 107.326364,459.547678 105.02972,467.091344 L104.72802,468.0746 C99.72002,484.2636 96.25402,501.0496 90.12202,517.0846 C78.40202,547.7366 70.86902,580.7646 60.28502,612.0146 C59.57102,621.9536 53.97202,631.4206 52.02302,641.1926 C51.11102,645.7686 49.56402,650.2666 48.49202,654.8156 C47.46402,659.1796 43.75002,664.3476 44.12602,668.6656 C57.83402,663.7816 71.71902,662.5536 86.04602,661.2366 C99.62502,659.9876 113.97002,659.4906 127.43502,659.4846 C141.15602,659.4776 155.82702,658.1376 169.95502,657.9296 C184.73002,657.7126 199.72802,657.3296 214.28902,655.7976 C206.67502,650.1586 197.14802,644.8626 191.52602,637.0166 C185.41402,628.4876 182.24002,617.8016 176.86202,608.8016 C166.273643,591.081374 159.469325,569.17375 153.873532,549.189368 L152.570048,544.529352 L151.088141,539.271493 C140.357158,501.321243 129.148306,463.835743 126.29202,424.3826 Z M937.43542,661.8484 L931.49842,661.7864 L931.49842,661.7864 C933.48642,660.9574 935.46542,660.9944 937.43542,661.8484 Z M908.394451,490.387462 L910.25092,490.3719 L908.36202,490.3896 C891.15402,491.5136 873.83302,491.7766 856.63302,491.9716 C847.46202,492.0756 838.24002,492.4596 829.16002,492.5306 C824.99002,492.5636 820.91302,492.3566 816.72802,491.9506 C815.32802,491.8156 813.96102,491.4936 812.55102,491.4156 L812.061688,491.386129 C807.74651,491.105602 808.042231,490.5986 806.83802,494.7236 C804.65202,502.2136 806.33402,511.7426 805.76002,519.5166 C805.04322,529.212067 804.633922,539.035587 804.737012,548.766014 L804.76702,550.8496 C804.94302,560.4696 804.61502,570.0676 804.97402,579.7086 C805.114645,583.452037 805.506637,586.546842 806.422732,590.060885 L806.61302,590.7696 C807.80402,595.0806 809.11402,605.1526 812.08002,608.1356 C812.41702,608.4756 814.93802,607.6836 815.60702,608.5296 C816.63802,609.8326 816.44902,612.5896 817.15702,613.4316 C819.44802,616.1576 824.18302,616.3736 827.61802,617.5986 C836.546967,620.782705 844.776757,624.225293 853.171262,628.432272 L854.57202,629.1406 C862.50902,633.1896 875.30602,636.6356 880.07802,644.6236 C882.26602,648.2856 882.56102,653.1146 884.57302,656.8926 C886.86402,661.1966 882.28002,658.9466 887.89302,660.6926 C890.42102,661.4786 894.44902,660.6926 897.04002,660.6926 L903.80692,661.1022 L903.80692,661.1022 C902.008014,661.183824 900.187755,661.607085 898.418307,661.201943 C901.56248,662.011774 906.563375,661.511465 908.99502,661.1566 C913.869242,660.445756 914.488089,658.540805 917.46997,654.301289 L917.67702,654.0086 C923.12102,646.3536 927.54102,639.0226 930.74402,630.1556 C936.87402,613.1846 939.37702,595.8226 942.06802,578.0696 C945.05902,558.3436 939.59702,537.8966 937.64302,518.3046 C937.258163,514.451743 936.752081,510.629008 936.168227,506.806169 L935.87002,504.8946 C935.44502,502.2276 935.33402,493.1546 933.57902,490.8456 C930.212917,486.417358 914.581825,489.97511 908.394451,490.387462 Z M582.42642,616.5774 C571.67742,617.5694 560.56242,617.6864 549.80642,616.9854 L549.793987,622.044632 C549.798343,631.364202 550.234827,640.373553 555.77042,648.4744 C560.48342,655.3714 569.33342,656.9994 577.70542,657.8244 C586.91342,659.5754 599.41242,657.1134 605.29942,648.9954 C607.75567,645.608793 609.05838,640.646931 609.947091,636.400322 L610.363725,634.346809 C611.31446,629.724821 613.672114,619.662339 611.94942,615.7834 C609.74442,610.8174 588.58742,616.0074 582.42642,616.5774 Z M180.44702,268.9566 C173.99502,269.4616 166.96102,273.5416 161.80502,277.1286 C165.13702,280.0986 173.47202,283.7086 167.48502,289.0586 C161.67502,294.2526 158.46602,284.9356 156.24902,280.8536 C145.80902,289.4266 147.31802,301.2476 146.11202,313.3606 C145.48202,319.6846 143.82502,325.9126 142.75602,332.1416 C141.98602,336.6246 142.52602,341.2616 142.30602,345.8386 C141.74502,357.4696 140.57602,368.6026 140.629135,380.0706 C140.69302,392.3286 141.52802,404.1666 142.50902,416.3356 C144.16002,436.8236 147.94302,457.3186 151.18702,477.6436 C153.01202,489.0686 155.51002,500.1686 157.93502,511.4086 C160.68702,524.1656 165.77802,536.2486 168.63302,548.9726 C171.415542,545.435383 173.538396,545.265122 177.835332,545.685829 L178.43502,545.7466 C182.05402,546.1236 184.48502,545.2626 184.27302,550.2856 C184.13602,553.5436 181.26202,556.0316 178.08202,556.6006 C173.93502,557.3416 172.52602,555.2726 170.38902,552.1316 C169.88902,558.0796 173.88902,564.2986 175.47102,570.1076 C176.96802,575.6126 177.96002,581.0086 180.47602,586.2776 C182.580306,590.683314 184.425244,595.0376 186.473693,599.397763 L187.51702,601.5786 C188.37502,603.3351 189.191395,605.112412 190.034067,606.876787 L190.88802,608.6356 C191.47302,609.8186 192.16202,611.4486 193.03502,612.4456 C195.08302,614.7826 194.75702,613.6506 197.15402,614.9816 L198.064189,615.49299 C202.135401,617.817852 200.422766,617.539917 200.53702,623.1496 C200.65602,629.0586 203.68602,633.3996 208.54502,636.7206 C218.629911,643.615383 228.579866,645.640978 239.979855,649.059562 L240.74202,649.2896 C251.66202,652.6076 263.16402,655.4546 274.72702,655.3896 C288.88902,655.3106 302.86302,653.4536 317.02502,653.2656 C332.64902,653.0586 348.42302,653.1436 364.01502,653.6836 L365.755913,653.746701 C371.236086,653.957686 376.421708,654.303875 381.759827,655.616235 L382.60402,655.8316 C389.564987,657.674067 396.306359,657.029042 403.452314,656.722941 L404.19302,656.6926 C418.342167,656.142147 432.927299,655.105402 447.021527,654.812511 C446.940281,654.769949 446.859732,654.722567 446.77922,654.6726 L452.03402,654.7416 L452.03402,654.7416 C463.28602,654.6616 475.15802,653.8766 486.45202,654.5546 C490.25602,654.5936 496.69802,656.9336 500.10102,655.5246 L498.629229,653.901412 C489.094299,643.424 480.114044,634.373332 467.96602,626.5876 L462.289711,622.949874 C450.945898,615.675355 439.665163,608.381314 428.63202,600.6156 C402.69102,582.3576 383.61102,560.7046 372.77502,530.2986 C370.159395,522.957975 368.353243,515.281608 366.452663,507.718565 L366.07102,506.2076 C364.97102,501.8726 362.78102,481.5926 359.06202,479.8416 C356.85902,478.8036 340.27902,490.4566 337.65202,491.9086 C331.51002,495.3056 325.34502,497.9396 318.99502,500.5976 C305.34602,506.3126 291.27502,510.6716 276.80102,514.3106 C259.44802,518.6736 247.62802,511.4546 236.87802,497.8156 C225.117591,482.894243 215.273577,466.12714 204.587022,450.378152 L203.39602,448.6326 C198.566496,441.593552 194.526088,434.565389 190.917167,426.869998 L190.37902,425.7106 C187.92802,420.3766 178.20702,405.9856 181.56602,400.3026 C191.14902,407.5986 194.59702,422.1056 201.12502,431.8746 C209.26102,444.0496 218.43002,455.5286 226.60802,467.6926 L227.451001,468.955348 C234.062992,478.924037 240.915714,490.615722 250.66102,497.6686 C259.59802,504.1356 268.08802,502.1476 277.70602,499.2406 C289.36302,495.7186 301.44602,493.9826 312.87002,489.6136 C325.23302,484.8866 336.93002,478.1806 348.99202,472.7126 C354.61502,470.1626 361.34802,468.7136 366.64702,465.5346 C371.130984,462.846382 370.556049,461.403609 370.850717,455.83334 L370.86802,455.5196 C371.26002,448.7166 371.71102,441.9086 372.01202,435.0996 C372.21402,430.5246 369.74002,424.3216 371.41902,420.9066 C357.72502,423.2806 344.34102,426.4606 330.74302,429.2736 C323.29802,430.8136 316.11902,432.7176 308.59802,433.9276 C305.73102,434.3886 301.81202,434.3756 299.24502,435.6246 C297.19702,435.0366 296.15302,435.4106 296.11302,436.7456 C296.01502,437.4706 295.86002,438.1856 295.64702,438.8886 C291.600711,440.729145 289.185943,436.99162 285.756711,433.200693 L285.36402,432.7716 C280.87002,427.9216 277.50502,422.4596 274.20802,416.7606 C266.83602,404.0186 258.33902,392.0346 251.51702,378.9336 C244.56402,365.5786 238.91702,351.2796 233.02202,337.4236 C227.61402,324.7116 224.15102,310.9636 218.17502,298.5526 C215.63502,293.27641 212.448308,288.87006 208.741004,284.419612 L208.18102,283.7516 C204.92402,279.8896 199.91302,271.5586 195.04902,269.7846 C193.76302,269.3156 190.39502,270.1036 188.93402,269.9996 C186.02202,269.7916 183.42702,268.7226 180.44702,268.9566 Z M199.83072,656.6078 L195.58872,656.5598 L195.58872,656.5598 L195.959599,656.404172 C197.257366,655.887806 198.551546,655.693843 199.83072,656.6078 Z M742.49502,576.9796 C737.471174,582.496946 731.738205,586.932668 725.841467,591.294748 L721.212035,594.701853 C718.479674,596.686188 712.913532,600.525356 712.08502,603.2896 C710.98602,606.9566 713.93002,610.4646 715.38602,614.1756 C718.397905,621.851908 720.165726,629.524954 721.800213,637.398652 L722.96002,643.0596 C723.77102,647.0196 725.52202,652.9726 728.77502,654.6316 C731.73702,656.1406 740.31502,655.0436 744.00102,654.7636 L750.980138,654.237322 C767.816886,652.986321 784.46499,651.975448 801.46602,653.1416 L805.466396,653.409147 C825.54653,654.716363 846.74781,655.529007 866.699325,654.19113 L868.62982,654.0545 C870.066816,653.956704 871.503812,653.859905 872.937826,653.767082 C859.71502,648.1826 846.84602,640.4326 833.04402,636.5986 C820.906207,633.228287 809.087438,629.241862 797.38007,625.108164 L793.360141,623.686571 C783.892418,620.35948 775.283964,617.528822 766.63002,611.5486 C761.06802,607.7046 756.12702,603.3826 752.30502,597.7656 C748.05002,591.5116 747.10302,582.6116 742.49502,576.9796 Z M490.99102,654.6015 L486.45202,654.5545 L486.45202,654.5545 L486.83218,654.39539 C488.225742,653.839674 489.615103,653.615167 490.99102,654.6015 Z M868.632883,654.055429 C869.517796,654.468236 870.376127,654.609418 871.204619,654.477752 C870.526617,654.527405 869.713923,654.383328 868.632883,654.055429 Z M541.93242,634.2164 L542.43442,623.2254 L542.43442,623.2254 L542.151359,623.300057 C538.305124,624.255332 523.145498,626.057634 523.14842,630.9414 C523.15042,633.9484 539.10842,633.8894 541.93242,634.2164 Z M573.74602,374.8696 C557.37902,378.8826 541.39002,385.1146 525.88702,391.6596 C510.16202,398.2976 496.74602,410.2216 482.53802,419.8016 C467.29702,430.0796 450.79902,437.5666 433.72302,444.1206 C418.85502,449.8276 405.62802,458.0206 390.83902,463.7646 C387.89202,464.9096 381.87802,464.7416 379.40602,466.2346 C376.74202,467.8416 377.79102,472.5876 374.55702,474.3386 C373.09802,475.1286 372.61202,472.2646 371.49202,472.3116 C370.19052,472.36575 368.998222,473.819677 367.750511,474.837743 L367.55302,474.9946 C362.17802,479.1416 365.47102,481.9066 367.59902,487.6126 C374.53602,506.2046 378.26402,525.1206 388.00402,542.6726 C395.86642,556.837291 407.057398,569.556995 420.233008,579.054299 L420.96702,579.5786 C423.02002,581.0326 429.71102,586.6646 432.12002,586.2896 C434.234795,585.962 438.482772,580.472506 440.082285,578.746775 L440.20002,578.6216 C446.99502,571.5156 453.20602,563.8716 459.99702,556.7546 C470.49102,545.7556 480.59302,534.4616 490.77702,523.3126 C502.59902,510.3696 513.06202,495.7046 523.71002,481.8756 C528.60802,475.5136 534.91302,470.3316 540.35702,464.4326 C547.67802,456.5006 554.40002,447.9736 561.34502,439.7126 L561.62069,439.373091 C563.744133,436.68006 567.103956,430.820791 570.23002,430.8926 C572.51802,430.9456 576.55202,436.3326 577.74902,438.0206 C582.19702,444.2956 582.17702,455.6276 584.38902,463.4606 C589.78702,482.5606 599.52002,501.2156 612.86902,515.9546 C626.14302,530.6116 643.14702,541.0346 658.84702,552.8156 L661.013259,554.446907 C677.221586,566.697461 692.541977,579.343174 705.45602,595.1286 C710.27372,590.6682 715.48022,586.67031 720.390989,582.258672 L722.01602,580.7716 C727.13502,575.9946 733.80502,572.1186 738.32102,566.8946 C718.75402,535.9096 694.26002,508.4986 673.85602,478.0666 C662.43102,461.0266 651.31102,443.7686 641.69402,425.6306 C634.69902,412.4366 630.35102,393.6116 619.54702,383.5246 L618.677574,382.71814 C614.164632,378.561992 609.311808,374.609933 603.31002,372.7396 C594.56702,370.0156 582.52902,372.7156 573.74602,374.8696 Z M802.47902,233.2846 C799.935082,244.541475 800.764968,256.871029 799.971993,268.409505 L799.89002,269.5236 C798.93802,281.6366 799.03002,293.5266 799.34702,305.7106 C799.93402,328.3416 802.34602,350.6996 804.39702,373.2776 C806.93202,391.5976 812.24802,410.1546 812.45202,428.6956 C812.49702,432.7746 811.80602,437.3046 812.65602,441.3266 C813.56402,445.6206 816.51702,449.4166 818.22202,453.4976 L818.512531,454.183253 C821.379625,460.871866 827.555713,473.440725 821.17202,478.7426 C821.03802,473.5336 816.27102,466.9186 813.87002,462.3636 C810.25102,455.5006 805.49602,449.2256 801.57302,442.5326 C793.36102,428.5236 784.15902,414.8146 773.57602,402.4646 C763.716194,390.957643 752.418092,380.694082 741.887977,369.79846 L740.45702,368.3086 C737.17302,364.8666 710.82702,331.7396 709.78002,332.2026 C717.95202,363.7166 731.84402,391.1366 750.85502,417.5226 C759.942995,430.134225 770.804836,438.541236 781.859322,449.110229 L782.71002,449.9276 C792.15902,459.0536 809.96802,468.8116 806.70102,483.7646 C821.47202,482.3446 836.14602,480.0756 851.05102,480.0756 C848.684537,461.861117 846.853151,443.925369 842.790921,426.009134 L842.34702,424.0896 C837.37902,403.0206 834.01402,381.3216 829.81002,360.0656 C825.52002,338.3656 818.24302,317.3576 813.71602,295.6986 C809.38102,274.9586 805.65702,254.2556 802.47902,233.2846 Z M871.31902,212.2226 C869.05402,217.1606 868.52602,223.4796 866.46902,228.6606 C864.41402,233.8366 861.66502,238.7676 859.69302,243.9796 C855.533441,254.973468 854.026537,267.375207 853.525475,279.101353 L853.48702,280.0506 C852.44602,307.2026 851.90802,334.2936 853.73302,361.4456 C854.51502,373.0836 855.11502,384.7416 854.90102,396.4026 C854.66602,409.2336 852.70102,420.3706 855.08702,433.0966 C857.44902,445.6986 858.93302,458.2486 859.72002,471.0346 L859.784944,472.061605 C860.085708,476.646619 860.391217,478.36386 862.203932,478.879205 L866.10322,478.7944 C865.946427,478.870185 865.789492,478.939496 865.632416,479.00235 L866.786794,478.918234 C867.469672,478.86536 868.223412,478.803961 869.05602,478.7426 C875.23702,478.2866 881.47902,478.7736 887.66902,478.4906 C884.77502,443.5146 884.30202,408.4666 879.67902,373.6246 C877.32002,355.8496 877.25702,337.8176 874.32702,320.1086 C872.87102,311.3116 870.42802,302.6916 869.02402,293.8846 C867.572835,284.778822 868.207142,275.613697 868.384704,266.438338 L868.40302,265.3796 C868.481409,256.230767 870.160001,247.198782 870.834032,238.082308 L870.959339,236.231946 C871.257404,232.555183 874.007449,213.253457 871.31902,212.2226 Z M963.36402,221.6316 C954.702502,226.21035 949.838633,236.814985 945.277528,245.093407 L945.02902,245.5426 C939.17102,256.0876 935.26902,267.7636 932.87702,279.6016 C928.26202,302.4386 923.20002,325.3446 917.87502,348.1436 C915.830249,356.897581 914.0962,365.681206 912.403243,374.462884 L910.712182,383.247552 L910.712182,383.247552 L909.830433,387.782477 C907.756335,398.360701 905.542955,408.913394 902.71802,419.3846 L900.766276,426.551648 C898.177838,436.117039 895.53198,446.678386 895.198949,455.941318 L895.17402,456.8336 C895.07702,461.7316 893.60102,471.9896 895.82102,476.2436 C897.858576,480.149896 902.317882,478.416037 906.786108,477.96662 L907.03892,477.9427 L908.032805,477.630925 C909.159051,477.292251 910.284496,477.080634 911.406415,477.783246 L913.409905,477.661738 C914.745572,477.583028 916.082706,477.5176 917.43002,477.5176 C915.42002,468.1326 920.11902,455.9886 921.78502,446.6206 C923.64902,436.1416 925.06802,425.3056 926.31102,414.7426 C928.93102,392.4936 930.11802,370.5146 930.15202,348.1026 C930.157483,344.400133 930.277083,340.752141 930.499206,337.144198 C929.891087,335.910021 929.966789,334.681798 930.69122,333.4639 L930.681231,334.493104 C931.934635,317.940462 935.30797,302.164291 939.66202,285.7496 C945.60002,263.3596 955.32402,243.2246 963.36402,221.6316 Z M460.64002,368.6726 C453.73002,375.7276 449.38502,385.1046 443.20702,392.7156 C436.38002,401.1276 427.55802,406.0396 417.83502,410.5096 C407.729608,415.156188 397.291131,418.815981 386.94978,422.757878 L385.01202,423.5006 C380.38402,425.2846 380.47602,426.3056 380.07302,431.3796 C379.689828,436.197958 379.667588,441.07479 379.557317,445.919931 L379.507272,447.862148 L379.48802,448.4886 L379.48802,448.4886 L379.332459,450.48251 C379.250179,451.470255 379.156923,452.447454 379.033657,453.428823 L379.12682,453.2639 L379.846805,455.555864 L379.846805,455.555864 C384.337437,454.866143 389.657922,450.674955 393.468293,448.525008 L393.82102,448.3296 C398.87902,445.5826 403.94302,442.5526 408.89002,439.7916 C418.44002,434.4596 429.28202,430.9466 439.47902,426.5666 C450.60732,421.7862 460.880952,416.05998 471.48481,410.305331 L473.16202,409.3966 C477.07502,407.2806 505.19702,395.0906 504.72502,391.7606 L486.20202,391.1446 L486.20202,391.1446 C480.90902,390.9686 472.71102,392.1646 467.64202,390.5286 C464.86602,389.6316 461.74902,386.3306 460.70102,383.7456 C459.66402,381.1876 461.99502,369.4226 460.64002,368.6726 Z M229.56702,306.3346 C228.37803,306.46825 238.304354,330.351683 239.651833,333.484077 L239.69002,333.5726 C243.99902,343.5236 248.52302,353.3776 252.88902,363.3036 C257.11902,372.9226 262.48502,381.7716 267.89102,390.7576 C272.51502,398.4426 277.27102,410.3686 284.24602,416.0606 C279.84202,396.5226 280.42202,374.0576 267.79002,357.6526 L259.545542,346.950554 C249.27889,333.604558 239.185178,320.311442 229.56702,306.3346 Z M940.92792,381.1158 C941.77792,382.4288 941.74392,383.7428 940.95692,385.0628 L940.92792,381.1158 L940.92792,381.1158 Z M500.45702,271.9716 C498.36202,274.2856 497.62702,280.6306 496.48702,283.6196 C493.45102,291.5826 489.92402,299.2676 487.38102,307.4136 C485.08602,314.7606 482.90602,322.0296 480.88602,329.4436 C478.75202,337.2706 474.54602,343.7216 471.98402,351.1986 L471.499894,352.624067 C469.819298,357.62296 468.314669,362.726936 467.949353,368.018393 L467.832785,370.046353 C467.529541,374.757967 467.215482,375.146369 472.68102,376.0196 C474.670136,376.337033 477.398389,377.229745 479.829854,377.398334 C479.579395,377.296826 479.329275,377.15149 479.07902,376.9549 L483.14102,376.9379 L483.14102,376.9379 C488.99902,378.0506 495.11402,377.7966 500.98802,378.7456 L502.732336,379.032205 C505.463994,379.465275 509.709814,380.007424 511.16702,379.0386 C513.96902,377.1756 514.96502,370.3426 516.29002,367.1606 C518.62002,361.5636 521.91702,356.6816 524.13902,350.9826 C533.21902,327.7046 541.68602,304.3336 552.66802,281.8506 C548.45902,280.7566 545.22702,280.7136 540.98502,280.1486 C536.56602,279.5596 532.56002,276.9466 528.34402,275.8236 C524.33702,274.7566 520.13902,275.0286 516.16902,273.7876 C513.98202,273.1046 512.10502,271.5856 509.94902,271.0546 C506.51202,270.2096 502.50102,269.7156 500.45702,271.9716 Z M505.44422,378.8264 L500.98822,378.7454 L500.98822,378.7454 C502.48422,378.2014 503.97522,377.9174 505.44422,378.8264 Z M219.955384,255.611699 L217.71002,256.4776 C212.82102,258.2916 208.21602,261.3056 203.61002,263.7576 L214.20002,276.6476 L214.20002,276.6476 C217.66002,268.1606 222.10702,261.1576 227.16002,253.5296 C226.492877,253.191029 222.581857,254.60858 219.955384,255.611699 L219.955384,255.611699 Z M232.13502,198.1656 C234.62602,200.8186 238.09202,202.1286 240.64302,204.5596 C244.04802,207.8016 244.32702,211.2166 244.82402,216.1656 C245.75602,225.4456 244.49002,234.7616 240.53102,243.2506 L242.325,243.371427 L243.163507,243.446927 C258.08659,244.844633 273.84239,248.931366 289.186474,247.094883 L285.51742,247.158 C286.966006,246.443854 288.425798,246.304036 289.899504,247.002066 C291.004023,246.859525 292.106373,246.682394 293.20602,246.4706 L292.812418,246.318595 C289.79853,245.199669 283.277726,243.590188 286.41302,239.3346 C289.74802,234.8076 295.36802,240.5496 298.69402,239.9566 C300.74502,239.5906 305.27702,231.0176 306.54102,229.2426 L307.531696,227.852901 C309.576798,225.023716 310.414616,224.3736 314.91502,223.4716 L315.426995,223.373679 C319.991913,222.540149 321.068231,223.380249 321.67902,218.5856 C322.363636,213.204723 320.650346,207.194219 320.61193,201.6322 L320.62402,200.5987 L320.613721,201.607967 L320.613721,201.607967 L320.613165,201.148649 L320.613165,201.148649 L320.62502,200.6046 C321.04602,188.0256 325.10402,176.9946 328.88102,165.1596 C313.502645,168.505142 298.451221,172.446727 282.782363,174.74969 L279.230996,175.254866 C272.23751,176.275437 262.369572,177.892772 256.43702,173.4536 C254.78002,172.2136 255.04502,170.5396 253.68902,169.1026 C251.41502,166.6916 247.19702,164.1976 243.97202,163.5106 C224.12502,159.2856 222.18902,187.5786 232.13502,198.1656 Z M128.61512,659.3362 L132.62212,659.3532 L132.62212,659.3532 C131.28212,660.2652 129.94712,660.3082 128.61512,659.3362 Z M139.16372,659.2055 L135.30072,659.2195 L135.30072,659.2195 C136.58572,658.3665 137.87372,658.4405 139.16372,659.2055 Z M368.903068,638.025764 L368.87492,638.2188 C367.42292,648.0298 361.87892,648.5198 359.78992,639.0218 L359.901437,638.6046 C360.703481,635.523142 361.213224,632.011626 365.00392,631.6118 C369.460884,631.141354 369.411216,634.489777 368.903068,638.025764 L368.903068,638.025764 Z M241.73912,628.0579 L242.098332,628.270068 C246.332693,630.717851 261.94882,638.29972 254.95512,643.8229 C252.25712,645.9539 244.07812,641.5529 242.23712,639.3159 C240.04012,636.6459 237.89312,630.3909 241.73912,628.0579 Z M459.28092,642.7102 C457.34292,644.9292 452.27392,642.9212 450.32492,641.6062 C446.725053,639.176733 446.411889,636.921489 446.512967,633.097315 L446.53992,632.2532 C446.49092,633.6092 446.44192,634.9642 446.39092,636.3132 C446.43792,634.9552 446.48892,633.6042 446.53992,632.2532 C447.74892,627.0192 465.05692,636.0992 459.28092,642.7102 Z M307.20792,613.6336 C311.70192,614.6636 321.70792,625.5876 315.90492,630.0436 C310.31992,634.3326 302.89192,616.8966 307.20792,613.6336 Z M384.78212,606.8611 C388.90812,608.5681 394.50812,624.3401 388.61512,625.1861 C381.99612,626.1351 384.20012,610.1451 384.78212,606.8611 Z M731.64542,612.7669 C731.27142,619.4109 724.13642,614.4989 724.64242,610.0539 C725.56142,601.9879 730.12242,609.9589 731.64542,612.7669 Z M336.96372,608.2163 C330.92672,612.2863 332.19972,600.3503 333.25672,598.0003 C337.97772,596.4073 339.70772,606.3663 336.96372,608.2163 Z M266.29672,596.6756 L265.420435,597.4471 C261.118161,601.168387 251.60361,608.37824 252.37272,596.8016 C252.90072,588.8496 267.26972,589.2646 266.29672,596.6756 Z M378.76982,579.7262 C378.34182,582.5832 372.48282,583.2542 369.40282,582.4992 C364.86882,581.3862 363.69182,578.4122 363.79582,574.0032 C365.24482,569.1222 379.57482,574.3522 378.76982,579.7262 Z M335.71672,568.3655 C337.43772,578.0895 322.32572,587.5995 321.12772,573.7765 C320.68972,568.7215 324.06972,565.1675 327.85472,562.0775 C333.22672,557.6925 336.22772,561.8915 335.71672,568.3655 Z M218.62972,560.1883 C225.44272,563.8333 215.48372,584.2313 209.83672,579.8913 C202.00172,573.8693 212.71772,562.0203 218.62972,560.1883 Z M299.696927,570.684263 L299.204153,572.760026 C298.415287,576.037846 297.260612,579.848077 293.61792,580.019 C288.52992,580.258 288.34592,574.238 288.49692,570.864 C287.98113,562.251 302.36188,558.770784 299.696927,570.684263 L299.696927,570.684263 Z M920.90712,551.3562 L916.31802,551.3857 L917.202046,551.495836 C920.08165,551.8747 924.63682,552.7684 920.81902,556.3027 C918.79002,558.1807 909.07702,557.2097 906.13702,557.8327 C888.16602,561.6377 867.76602,564.0917 849.33902,563.7747 C841.57562,563.6415 833.76038,563.06847 825.989528,562.622772 L823.40102,562.4797 C814.78502,562.0237 813.93802,558.5227 823.63302,557.4087 C829.174108,556.77254 834.794845,556.616385 840.415899,556.602588 L841.178405,556.469449 C844.364652,555.941363 847.550385,555.804149 850.730455,556.658645 L852.443633,556.667744 L852.443633,556.667744 L854.15302,556.669 C856.00998,555.88633 857.866941,555.818686 859.725566,556.516018 C868.491415,556.080943 877.231321,554.797629 885.99302,554.2117 C894.566078,553.936675 904.00679,551.076336 912.681016,551.157994 C915.41884,550.504704 918.160972,550.570178 920.90712,551.3562 Z M261.32862,561.6388 C258.28162,563.7808 252.50862,560.1088 250.67162,557.8948 C247.22762,553.7428 246.91562,548.6208 248.34362,543.7908 C251.65662,542.4378 267.27362,557.4598 261.32862,561.6388 Z M311.48622,530.9456 C317.26422,531.4066 325.20622,540.7636 316.22522,542.2506 C309.20022,543.4146 301.03022,533.2376 311.48622,530.9456 Z M821.69942,521.2391 C824.96868,522.519454 825.687545,526.392374 825.846302,529.893241 L825.82942,528.5481 C826.691325,530.212862 826.675225,531.88488 826.002263,533.565882 L825.750829,534.167332 C824.356577,537.579201 823.300687,541.946633 818.90042,539.6711 C815.452257,537.888243 814.910722,530.807433 815.514226,527.359768 L815.55342,527.1491 C816.24142,523.6671 817.69842,519.6731 821.69942,521.2391 Z M902.76332,519.7112 C905.952155,520.598969 906.86656,525.012733 907.254084,528.332369 L907.344926,529.176036 L907.344926,529.176036 L907.48132,530.6302 L907.48132,530.6302 L907.363959,530.982876 C906.465572,533.815214 905.561903,539.485033 902.10232,539.8722 C897.04632,540.4372 896.20932,531.7562 896.39532,528.5812 L896.420865,528.202794 C896.713809,524.346497 898.153965,518.426039 902.76332,519.7112 Z M887.843263,528.659954 L887.84292,528.8333 C887.81292,531.9023 886.67792,537.6993 883.06292,538.4083 C878.16192,539.3693 877.72392,531.9483 876.87192,528.6663 L876.954193,528.326302 C877.643584,525.314454 878.127203,519.309998 882.03592,519.0983 C886.496271,518.857598 887.826413,525.365715 887.843263,528.659954 L887.843263,528.659954 Z M838.78632,520.297 C842.228558,520.352751 843.045444,524.408598 843.260238,527.812619 L843.275806,528.076721 C843.303916,528.588718 843.319319,529.082845 843.329131,529.542746 L843.35832,531.281 L843.35832,531.281 C842.15332,533.597 840.87132,538.593 837.62332,538.067 C833.64132,537.421 833.51332,529.758 833.95032,526.904 L834.007006,526.553596 C834.437888,524.036258 835.60482,520.245455 838.78632,520.297 Z M864.49892,530.6302 C860.15992,543.7832 852.24592,534.8842 855.25092,525.0642 C858.39292,514.8002 864.09992,524.7692 864.49892,530.6302 Z M929.91002,533.8059 C926.68002,541.0529 922.23702,534.8099 923.65902,529.6629 C925.76802,522.0299 929.72702,528.7929 929.91002,533.8059 Z M221.51332,521.9971 L223.928977,522.113709 C228.971732,522.383614 231.81332,523.005883 231.81332,529.5911 L231.522022,529.641267 C226.471435,530.568332 207.3318,536.61652 211.42232,524.9751 C213.01432,520.4451 217.45432,521.7891 221.51332,521.9971 Z M361.29232,517.9206 C361.29332,525.9106 352.19832,528.4306 350.10532,520.2156 L350.246505,519.70878 C350.890788,517.326039 351.683837,513.65391 353.75632,512.2676 C357.78432,509.5736 361.29132,513.6376 361.29232,517.9206 Z M189.73322,500.361 C190.37622,502.383 185.23222,511.45 183.52122,512.129 C178.99422,513.926 178.36222,509.738 176.86222,506.033 C176.80922,500.587 187.72322,494.042 189.73322,500.361 Z M248.93642,471.0359 L248.099544,471.440957 C245.566589,472.692412 244.74856,473.238644 242.50742,470.9839 C240.35542,468.8189 240.45042,462.7869 242.29742,460.5349 C249.37142,451.9109 249.20542,467.5459 248.93642,471.0359 Z M275.18252,453.5447 C278.53752,453.9717 288.50652,463.4277 283.31552,467.1857 C276.95452,471.7897 273.35552,457.3667 275.18252,453.5447 Z M169.14442,449.7278 L169.385867,449.824013 C173.775849,451.537558 199.62086,460.13696 185.77542,464.5058 C182.03542,465.6858 176.38242,465.8618 173.14042,463.7828 C169.24042,461.2808 165.30642,453.8978 169.14442,449.7278 Z M347.77042,456.0349 C345.33142,465.4259 339.24442,459.1069 339.58942,452.0009 C340.14342,440.6189 346.45142,450.5319 347.77042,456.0349 Z M158.24112,421.0056 L158.805235,421.092448 C162.237328,421.593607 167.484852,421.992493 167.69212,426.4956 C167.880564,430.600156 162.833441,431.981445 159.156728,432.34131 L158.95012,432.3606 C155.12012,432.7006 150.05012,431.6196 149.97712,426.8046 C149.90012,421.6096 158.12112,421.9226 158.24112,421.0056 Z M243.15512,419.5735 C243.25712,426.1735 230.61112,431.9935 230.51312,421.5325 C230.42612,412.1845 243.62712,409.4485 243.15512,419.5735 Z M234.80462,385.2 L235.216466,385.328518 C238.273397,386.255463 242.073533,386.89313 242.33562,390.68 C242.62662,394.87 238.73462,396.735 235.23262,396.5 C232.36062,396.307 228.11062,394.181 227.58862,391.065 C226.82362,386.491 231.28762,386.192 234.80462,385.2 Z M168.31432,376.472 C161.99332,377.898 150.41632,365.724 157.49232,363.112 C162.47832,361.269 168.31432,372.799 168.31432,376.472 Z M208.86312,355.2224 C216.57212,361.9484 202.28312,377.0014 196.61012,371.1754 C193.71312,368.1994 196.38512,361.7884 198.77612,359.2984 C201.23012,356.7434 205.59612,356.2634 208.86312,355.2224 Z M182.19382,331.6427 C173.90882,331.2837 162.76682,318.0437 175.83782,318.0437 C185.06982,316.9717 193.57582,332.1347 182.19382,331.6427 Z M207.99582,298.8742 C208.79882,304.6192 194.72682,310.7322 194.87882,301.3972 C194.98282,295.0872 207.10782,292.5152 207.99582,298.8742 Z M308.33382,194.4276 C314.59482,197.1326 307.79882,207.5056 304.46182,209.6136 C300.46282,206.4066 302.24782,191.7996 308.33382,194.4276 Z M238.57312,167.6224 C247.31312,170.7044 248.71012,191.7844 237.86312,192.1004 C234.537454,191.227752 233.09219,187.710049 232.779532,184.261118 C232.162622,182.917626 232.198749,181.578946 232.83704,180.241254 L232.95612,180.0054 L232.95612,180.0054 L235.56912,174.0424 L235.56912,174.0424 L234.54812,171.8374 L234.54812,171.8374 L234.588086,171.422187 C234.915008,167.624797 234.030361,166.021572 238.57312,167.6224 Z M315.77342,187.826 C313.34542,190.574 305.34442,189.274 302.08042,189.848 L300.526115,190.120569 C296.766561,190.75048 293.51746,190.87192 295.57842,185.166 C297.41742,180.074 303.98542,178.982 308.60442,179.115 C312.54142,178.805 319.69242,183.39 315.77342,187.826 Z" id="Shape" fill="#000"/></g></svg>