<?xml version="1.0" standalone="no"?><!DOCTYPE svg PUBLIC "-//W3C//DTD SVG 1.1//EN" "http://www.w3.org/Graphics/SVG/1.1/DTD/svg11.dtd"><svg t="1628514157513" class="icon" viewBox="0 0 1024 1024" version="1.1" xmlns="http://www.w3.org/2000/svg" p-id="1759" xmlns:xlink="http://www.w3.org/1999/xlink" width="200" height="200"><defs><style type="text/css"></style></defs><path d="M738.133333 274.346667l-60.16 60.16L812.8 469.333333H368.213333v85.333334h443.733334l-134.826667 134.826666 60.16 60.16 208.213333-207.786666v-60.586667L738.133333 274.346667z" p-id="1760"></path><path d="M518.826667 789.333333H163.84v-554.666666h355.413333v128h85.333334v-128a85.333333 85.333333 0 0 0-85.333334-85.333334H163.84a85.333333 85.333333 0 0 0-85.333333 85.333334v554.666666a85.333333 85.333333 0 0 0 85.333333 85.333334h355.413333a85.333333 85.333333 0 0 0 85.333334-85.333334v-128h-85.333334z m0 0z" p-id="1761"></path></svg>